<svg xmlns="http://www.w3.org/2000/svg" width="297.4" height="152.6"><defs><style>@keyframes blink{0%{opacity:1}to{opacity:0}}.a{fill:#c764c5}.b{fill:#8b8b3a}.c{fill:#5cb3fa}.d{fill:#70c047}</style></defs><path d="M5.2 4.6v6.8h2.1v1H1.5v-1H4V5.5H1.6v-1ZM4.2.9a.9.9 0 0 1 .6.3.8.8 0 0 1 .3.6.9.9 0 0 1-.3.6 1 1 0 0 1-1.5-.6.9.9 0 0 1 .3-.6.9.9 0 0 1 .6-.3Zm11 3.5a1.6 1.6 0 0 1 .7.2 1.3 1.3 0 0 1 .6.6 3.2 3.2 0 0 1 .2 1.3v5.8h-1.1V6.7a4.4 4.4 0 0 0-.1-1 .5.5 0 0 0-.5-.3 1.3 1.3 0 0 0-.7.2 2.5 2.5 0 0 0-.7.7v6h-1.1V6.7a5.2 5.2 0 0 0-.1-1 .5.5 0 0 0-.5-.3 1.3 1.3 0 0 0-.7.2 2.5 2.5 0 0 0-.7.7v6H9.3V4.6h1v.9a3.7 3.7 0 0 1 .8-.8 1.6 1.6 0 0 1 1-.3 1.7 1.7 0 0 1 .8.2 1.3 1.3 0 0 1 .6.8 3 3 0 0 1 .7-.7 1.7 1.7 0 0 1 1-.3Zm7.2 0a2.5 2.5 0 0 1 1.7.5 2.8 2.8 0 0 1 .9 1.4 7.5 7.5 0 0 1 .2 2.1 6.5 6.5 0 0 1-.3 2.1 3.2 3.2 0 0 1-1 1.5 2.8 2.8 0 0 1-3.7-.4v3.7l-1.3.2v-11H20l.1 1.1a3.2 3.2 0 0 1 1-.9 2.7 2.7 0 0 1 1.3-.3Zm-.3 1a1.8 1.8 0 0 0-1.1.4 3.8 3.8 0 0 0-.8.8v4a2.3 2.3 0 0 0 .8.6 2 2 0 0 0 1 .3 1.6 1.6 0 0 0 1.4-.8 4.3 4.3 0 0 0 .5-2.3c0-2-.6-3-1.8-3Zm8.7-1a3 3 0 0 1 2.5 1.1 4.7 4.7 0 0 1 .8 3 5.3 5.3 0 0 1-.4 2 3 3 0 0 1-3 2 3 3 0 0 1-2.5-1 4.8 4.8 0 0 1-.8-3 5.4 5.4 0 0 1 .4-2.1 3.1 3.1 0 0 1 1-1.5 3.2 3.2 0 0 1 2-.5Zm0 1a1.7 1.7 0 0 0-1.5.7 4 4 0 0 0-.6 2.4 4 4 0 0 0 .6 2.2 1.9 1.9 0 0 0 3 0 4.1 4.1 0 0 0 .5-2.3 4.1 4.1 0 0 0-.5-2.3 1.7 1.7 0 0 0-1.5-.7Zm6 6.9v-1H38V5.5h-1.3v-1H39l.2 1.8a4.2 4.2 0 0 1 1-1.3 2.6 2.6 0 0 1 1.7-.6 3.3 3.3 0 0 1 .6 0l.5.2-.2 2.6h-1V5.5c-1.2 0-2 .9-2.6 2.6v3.3h1.6v1Zm14.9-.3a3.2 3.2 0 0 1-1 .4 4.3 4.3 0 0 1-1.1.1 2.7 2.7 0 0 1-2-.6 2.3 2.3 0 0 1-.6-1.7V5.5h-1.8v-1H47V2.8l1.2-.1v1.9H51l-.1 1h-2.5v4.6a1.3 1.3 0 0 0 .3 1 1.6 1.6 0 0 0 1.1.3 2.9 2.9 0 0 0 .8 0 3.5 3.5 0 0 0 .7-.4Z" class="a"/><path d="M68.4 0v1a4.3 4.3 0 0 0-1 .2 1.3 1.3 0 0 0-.6.3.9.9 0 0 0-.2.7l.3 3a1.9 1.9 0 0 1-.3 1.4 1.8 1.8 0 0 1-1.1.6 1.8 1.8 0 0 1 1.1.6 1.9 1.9 0 0 1 .3 1.4l-.3 3a.9.9 0 0 0 .2.7 1.3 1.3 0 0 0 .6.4 4.2 4.2 0 0 0 1 0v1a6 6 0 0 1-1.5-.1 2.3 2.3 0 0 1-1.2-.7 1.8 1.8 0 0 1-.3-1.4l.3-2.8a1.7 1.7 0 0 0 0-1A1 1 0 0 0 65 8a4.7 4.7 0 0 0-1.5-.2v-1a4.7 4.7 0 0 0 1.5-.2 1 1 0 0 0 .6-.5 1.6 1.6 0 0 0 .1-.9l-.3-2.8a1.8 1.8 0 0 1 .4-1.4 2.1 2.1 0 0 1 1-.7 5.5 5.5 0 0 1 1.6-.1Z" class="b"/><path d="M86.7 12.3H85l-1-5.7-1.1 5.7h-1.7l-1.5-7.7H81l1 7 1.3-6h1.4l1.2 6 1-7h1.2Zm6.1-7.9a3 3 0 0 1 2.5 1.1 4.7 4.7 0 0 1 .9 3 5.5 5.5 0 0 1-.4 2 3.2 3.2 0 0 1-1.1 1.5 3.1 3.1 0 0 1-1.9.5 3 3 0 0 1-2.5-1.1 4.8 4.8 0 0 1-.8-3 5.4 5.4 0 0 1 .4-2 3.1 3.1 0 0 1 1-1.5 3.2 3.2 0 0 1 1.9-.5Zm0 1a1.8 1.8 0 0 0-1.5.7 4.2 4.2 0 0 0-.5 2.4 4 4 0 0 0 .5 2.2 1.9 1.9 0 0 0 3 0 4.1 4.1 0 0 0 .5-2.3 4.1 4.1 0 0 0-.5-2.3 1.7 1.7 0 0 0-1.5-.7Zm5.9 6.9V4.6h1l.1 1a3 3 0 0 1 1.2-.9 3.2 3.2 0 0 1 1.4-.3 2.1 2.1 0 0 1 1.7.6 2.5 2.5 0 0 1 .5 1.7v5.6h-1.2V7.6a7.3 7.3 0 0 0 0-1.3 1.1 1.1 0 0 0-.5-.7 1.4 1.4 0 0 0-.8-.2 2 2 0 0 0-.9.2 2.8 2.8 0 0 0-.7.5 4 4 0 0 0-.5.6v5.6Zm13.5-11 1.3.1v11h-1.1l-.2-1a2.8 2.8 0 0 1-1 .8 2.8 2.8 0 0 1-2.8-.2 3 3 0 0 1-1-1.4 6.4 6.4 0 0 1-.3-2.1 5.5 5.5 0 0 1 .3-2.1 3.3 3.3 0 0 1 1-1.4 2.6 2.6 0 0 1 1.7-.6 2.6 2.6 0 0 1 2 1Zm-1.7 4a1.7 1.7 0 0 0-1.5.9 4.1 4.1 0 0 0-.6 2.3c0 2 .7 3 1.9 3a1.8 1.8 0 0 0 1.1-.4 3.5 3.5 0 0 0 .8-.9V6.4a2.4 2.4 0 0 0-.8-.7 1.9 1.9 0 0 0-1-.3Zm6.9 3.6a2.7 2.7 0 0 0 .7 2 2.2 2.2 0 0 0 1.6.6 3 3 0 0 0 1-.2 4.6 4.6 0 0 0 1-.5l.6.8a4 4 0 0 1-1.2.7 4.4 4.4 0 0 1-1.4.3 3.5 3.5 0 0 1-2-.6 3.2 3.2 0 0 1-1.2-1.4 5 5 0 0 1-.4-2.1 5 5 0 0 1 .4-2.1 3.4 3.4 0 0 1 1.2-1.4 3.1 3.1 0 0 1 1.8-.6 2.8 2.8 0 0 1 2.3 1 4.2 4.2 0 0 1 .9 2.8V9Zm2.1-3.5a2 2 0 0 0-1.4.6 3 3 0 0 0-.7 2h4a3 3 0 0 0-.5-2 1.7 1.7 0 0 0-1.4-.6Zm5.8 6.9v-1h1.2V5.5h-1.2v-1h2.2l.2 1.8a4.2 4.2 0 0 1 1.1-1.4 2.6 2.6 0 0 1 1.7-.6 3.4 3.4 0 0 1 .6 0l.5.2-.2 2.6h-1V5.5c-1.2 0-2 .9-2.6 2.6v3.3h1.6v1Z" class="c"/><path d="M143.7 0a5.5 5.5 0 0 1 1.6.3 2.2 2.2 0 0 1 1.1.6 1.9 1.9 0 0 1 .3 1.4l-.3 2.9a1.3 1.3 0 0 0 .4 1.1 3 3 0 0 0 1.8.4v1a3 3 0 0 0-1.8.4 1.3 1.3 0 0 0-.4 1.2l.3 2.8a1.9 1.9 0 0 1-.3 1.4 2.2 2.2 0 0 1-1.1.7 6 6 0 0 1-1.6.2v-1a4.3 4.3 0 0 0 1-.1 1.3 1.3 0 0 0 .7-.4.9.9 0 0 0 .2-.7l-.3-3a1.8 1.8 0 0 1 .3-1.4 2 2 0 0 1 1.2-.6 2 2 0 0 1-1.2-.6 1.8 1.8 0 0 1-.3-1.4l.3-3a.9.9 0 0 0-.2-.7 1.3 1.3 0 0 0-.6-.4 4.2 4.2 0 0 0-1-.1Z" class="b"/><path d="M165.3 1.3a5.7 5.7 0 0 1 1.2 0 6.1 6.1 0 0 1 1 .4l-.4 1a4.1 4.1 0 0 0-.8-.3 5 5 0 0 0-1-.1c-1 0-1.5.4-1.5 1.3v1.6h2.5l-.1 1h-2.5v6.2h-1.2V6h-2V5h2V3.6a2 2 0 0 1 .3-1.2 2.4 2.4 0 0 1 1-.8 3.5 3.5 0 0 1 1.5-.3Zm4.4 11v-1h1.2V5.5h-1.2v-1h2.1l.2 1.8a4.2 4.2 0 0 1 1.1-1.4 2.6 2.6 0 0 1 1.7-.6 3.3 3.3 0 0 1 .6 0l.5.2-.1 2.6h-1V5.5h-.1c-1.2 0-2 .9-2.6 2.6v3.3h1.6v1Zm11.7-7.9a3 3 0 0 1 2.5 1.1 4.7 4.7 0 0 1 .8 3 5.3 5.3 0 0 1-.4 2 3.2 3.2 0 0 1-1.1 1.5 3.1 3.1 0 0 1-1.8.5 3 3 0 0 1-2.5-1.1 4.8 4.8 0 0 1-.9-3 5.4 5.4 0 0 1 .4-2 3.1 3.1 0 0 1 1.1-1.5 3.2 3.2 0 0 1 2-.5Zm0 1a1.7 1.7 0 0 0-1.5.7 4 4 0 0 0-.5 2.4 4 4 0 0 0 .5 2.2 1.9 1.9 0 0 0 3 0 4.1 4.1 0 0 0 .5-2.3 4.1 4.1 0 0 0-.5-2.3 1.7 1.7 0 0 0-1.5-.7Zm11-1a1.6 1.6 0 0 1 .7.2 1.2 1.2 0 0 1 .6.6 3.2 3.2 0 0 1 .2 1.3v5.8h-1.1V6.7a4.4 4.4 0 0 0-.1-1 .5.5 0 0 0-.5-.3 1.3 1.3 0 0 0-.7.2 2.3 2.3 0 0 0-.7.7v6h-1.1V6.7a4.4 4.4 0 0 0-.1-1 .5.5 0 0 0-.5-.3 1.3 1.3 0 0 0-.7.2 2.3 2.3 0 0 0-.7.7v6h-1.1V4.6h1v.9a3.7 3.7 0 0 1 .8-.8 1.6 1.6 0 0 1 1-.3 1.7 1.7 0 0 1 .8.2 1.3 1.3 0 0 1 .6.8 3.1 3.1 0 0 1 .7-.7 1.7 1.7 0 0 1 1-.3Z" class="a"/><path d="m207.4 5.3-.2-3.9h1.6l-.3 3.9Zm10 6.1a3.2 3.2 0 0 0 1.1-.1 4.4 4.4 0 0 0 1-.5l.5.8a3.7 3.7 0 0 1-1.2.7 4.2 4.2 0 0 1-1.4.2 3.7 3.7 0 0 1-2-.5 3.2 3.2 0 0 1-1.2-1.4 5 5 0 0 1-.5-2.1 5 5 0 0 1 .5-2.1 3.5 3.5 0 0 1 1.2-1.5 3.6 3.6 0 0 1 2-.5 4 4 0 0 1 2.6.9l-.6.8a3.5 3.5 0 0 0-2-.7 2 2 0 0 0-1.7.8 3.5 3.5 0 0 0-.6 2.3 3.3 3.3 0 0 0 .6 2.2 2.2 2.2 0 0 0 1.7.7ZM224 1.3v4.3a3 3 0 0 1 1.1-.9 3.1 3.1 0 0 1 1.4-.3 2 2 0 0 1 1.6.6 2.5 2.5 0 0 1 .6 1.7v5.6h-1.3V6.7a1.4 1.4 0 0 0-.3-1 1.4 1.4 0 0 0-1-.3 2 2 0 0 0-.8.2 3 3 0 0 0-.8.5 3.2 3.2 0 0 0-.5.6v5.7h-1.2v-11Zm11.6 3.3v6.8h2.2v1h-5.9v-1h2.4V5.5H232v-1Zm-1-3.7a.9.9 0 0 1 .6.3.9.9 0 0 1 .3.6.9.9 0 0 1-1 .9.8.8 0 0 1-.6-.3.9.9 0 0 1-.2-.6.8.8 0 0 1 .2-.6.8.8 0 0 1 .7-.3Zm8.9.5v9a.9.9 0 0 0 .4.8 1.6 1.6 0 0 0 .9.3 2.8 2.8 0 0 0 .7 0 4.8 4.8 0 0 0 .6-.3l.3 1a4.8 4.8 0 0 1-.8.2 3.9 3.9 0 0 1-1 .1 2.5 2.5 0 0 1-1.7-.6 2 2 0 0 1-.6-1.5v-8H240v-1Zm10.5-.1 1.2.1v11h-1l-.2-1a2.8 2.8 0 0 1-1 .8 2.8 2.8 0 0 1-2.8-.2 3 3 0 0 1-1-1.4 6.4 6.4 0 0 1-.3-2.1 5.7 5.7 0 0 1 .3-2.1 3.3 3.3 0 0 1 1-1.4 2.6 2.6 0 0 1 1.7-.6 2.6 2.6 0 0 1 2 1Zm-1.8 4a1.7 1.7 0 0 0-1.5.9 4.1 4.1 0 0 0-.5 2.3c0 2 .6 3 1.9 3a1.8 1.8 0 0 0 1.1-.4 3.7 3.7 0 0 0 .8-.9V6.4a2.3 2.3 0 0 0-.8-.7 1.9 1.9 0 0 0-1-.3Zm7.2-4v4.3a2.9 2.9 0 0 1 1.2-.9 3.2 3.2 0 0 1 1.3-.3 2 2 0 0 1 1.7.6 2.5 2.5 0 0 1 .5 1.7v5.6H263V6.7a1.4 1.4 0 0 0-.3-1 1.4 1.4 0 0 0-1-.3 1.9 1.9 0 0 0-.9.2 2.8 2.8 0 0 0-.7.5 3.5 3.5 0 0 0-.5.6v5.7h-1.3v-11ZM270 4.4a3 3 0 0 1 2.5 1.1 4.7 4.7 0 0 1 .9 3 5.5 5.5 0 0 1-.4 2 3.3 3.3 0 0 1-1.2 1.5 3.1 3.1 0 0 1-1.8.5 3 3 0 0 1-2.5-1.1 4.7 4.7 0 0 1-.8-3 5.6 5.6 0 0 1 .3-2 3 3 0 0 1 3-2Zm0 1a1.7 1.7 0 0 0-1.5.7 4.2 4.2 0 0 0-.5 2.4 4.1 4.1 0 0 0 .5 2.2 2 2 0 0 0 3 0 4.2 4.2 0 0 0 .5-2.3 4.2 4.2 0 0 0-.5-2.3 1.7 1.7 0 0 0-1.5-.7Zm8.9-1a3 3 0 0 1 2.5 1.1 4.7 4.7 0 0 1 .8 3 5.5 5.5 0 0 1-.4 2 3.2 3.2 0 0 1-1 1.5 3.1 3.1 0 0 1-2 .5 3 3 0 0 1-2.4-1.1 4.7 4.7 0 0 1-.9-3 5.4 5.4 0 0 1 .4-2 3.1 3.1 0 0 1 1.1-1.5 3.2 3.2 0 0 1 1.9-.5Zm0 1a1.8 1.8 0 0 0-1.5.7 4.2 4.2 0 0 0-.5 2.4 4 4 0 0 0 .5 2.2 1.9 1.9 0 0 0 3 0 4.2 4.2 0 0 0 .5-2.3 4.2 4.2 0 0 0-.5-2.3 1.7 1.7 0 0 0-1.5-.7Zm10.5-4.1 1.3.1v11h-1.1l-.1-1a2.8 2.8 0 0 1-1 .8 2.9 2.9 0 0 1-2.9-.2 3 3 0 0 1-1-1.4 6.4 6.4 0 0 1-.3-2.1 5.7 5.7 0 0 1 .3-2.1 3.3 3.3 0 0 1 1-1.4 2.5 2.5 0 0 1 1.7-.6 2.6 2.6 0 0 1 2.1 1Zm-1.7 4a1.7 1.7 0 0 0-1.5.9 4.1 4.1 0 0 0-.5 2.3c0 2 .6 3 1.8 3a1.8 1.8 0 0 0 1.2-.4 3.3 3.3 0 0 0 .7-.9V6.4a2.3 2.3 0 0 0-.7-.7 1.9 1.9 0 0 0-1-.3Zm8.3 0-.2-3.9h1.6l-.2 3.9Z" class="d"/><path d="M5.2 21.8v6.8h2.1v1H1.5v-1H4v-5.8H1.6v-1Zm-1-3.6a.9.9 0 0 1 .6.3.8.8 0 0 1 .3.6.9.9 0 0 1-.3.6 1 1 0 0 1-1.5-.6.9.9 0 0 1 .3-.7.9.9 0 0 1 .6-.2Zm11 3.5a1.6 1.6 0 0 1 .7.1 1.3 1.3 0 0 1 .6.7 3.2 3.2 0 0 1 .2 1.3v5.8h-1.1V24a4.4 4.4 0 0 0-.1-1 .5.5 0 0 0-.5-.3 1.3 1.3 0 0 0-.7.2 2.5 2.5 0 0 0-.7.7v6h-1.1V24a5.2 5.2 0 0 0-.1-1 .5.5 0 0 0-.5-.3 1.3 1.3 0 0 0-.7.2 2.5 2.5 0 0 0-.7.7v6H9.3v-7.8h1v1a3.7 3.7 0 0 1 .8-.8 1.6 1.6 0 0 1 1-.3 1.7 1.7 0 0 1 .8.2 1.3 1.3 0 0 1 .6.8 3 3 0 0 1 .7-.7 1.7 1.7 0 0 1 1-.3Zm7.2 0a2.5 2.5 0 0 1 1.7.5 2.8 2.8 0 0 1 .9 1.4 7.5 7.5 0 0 1 .2 2.1 6.5 6.5 0 0 1-.3 2.1 3.2 3.2 0 0 1-1 1.5 2.8 2.8 0 0 1-3.7-.4v3.7l-1.3.2v-11H20l.1 1.1a3.2 3.2 0 0 1 1-.9 2.7 2.7 0 0 1 1.3-.3Zm-.3 1a1.8 1.8 0 0 0-1.1.4 3.8 3.8 0 0 0-.8.8v3.9a2.3 2.3 0 0 0 .8.7 2 2 0 0 0 1 .3 1.6 1.6 0 0 0 1.4-.8 4.3 4.3 0 0 0 .5-2.2c0-2.1-.6-3.1-1.8-3.1Zm8.7-1a3 3 0 0 1 2.5 1 4.7 4.7 0 0 1 .8 3 5.3 5.3 0 0 1-.4 2.1 3 3 0 0 1-3 2 3 3 0 0 1-2.5-1 4.8 4.8 0 0 1-.8-3 5.4 5.4 0 0 1 .4-2.1 3.1 3.1 0 0 1 1-1.5 3.2 3.2 0 0 1 2-.5Zm0 1a1.7 1.7 0 0 0-1.5.7 4 4 0 0 0-.6 2.3 4 4 0 0 0 .6 2.4 1.9 1.9 0 0 0 3 0 4.1 4.1 0 0 0 .5-2.4 4.1 4.1 0 0 0-.5-2.3 1.7 1.7 0 0 0-1.5-.7Zm6 6.9v-1H38v-5.8h-1.3v-1H39l.2 1.9a4.2 4.2 0 0 1 1.1-1.5 2.6 2.6 0 0 1 1.7-.5 3.3 3.3 0 0 1 .6 0l.5.1-.2 2.7h-1v-1.7c-1.2 0-2 .9-2.6 2.6v3.3h1.6v1Zm14.9-.4a3.2 3.2 0 0 1-1 .4 4.3 4.3 0 0 1-1.1.2 2.7 2.7 0 0 1-2-.7 2.3 2.3 0 0 1-.6-1.7v-4.6h-1.8v-1H47V20h1.2v1.8H51l-.1 1h-2.5v4.6a1.3 1.3 0 0 0 .3 1 1.6 1.6 0 0 0 1.1.4 2.9 2.9 0 0 0 .8-.1 3.5 3.5 0 0 0 .7-.3Z" class="a"/><path d="M68.4 17.3v1a4.3 4.3 0 0 0-1 0 1.3 1.3 0 0 0-.6.4.9.9 0 0 0-.2.8l.3 3a1.9 1.9 0 0 1-.3 1.4 1.8 1.8 0 0 1-1.1.6 1.8 1.8 0 0 1 1.1.5 1.9 1.9 0 0 1 .3 1.4l-.3 3a.9.9 0 0 0 .2.8 1.3 1.3 0 0 0 .6.3 4.2 4.2 0 0 0 1 .1v1a6 6 0 0 1-1.5-.2 2.3 2.3 0 0 1-1.2-.7 1.8 1.8 0 0 1-.3-1.4l.3-2.8a1.7 1.7 0 0 0 0-.9 1 1 0 0 0-.7-.5 4.7 4.7 0 0 0-1.5-.2v-1a4.7 4.7 0 0 0 1.5-.1 1 1 0 0 0 .6-.6 1.6 1.6 0 0 0 .1-.8l-.3-2.8a1.8 1.8 0 0 1 .4-1.4 2.1 2.1 0 0 1 1-.7 5.5 5.5 0 0 1 1.6-.2Z" class="b"/><path d="M82.3 18.6v11h-1.2V18.7Zm5.2 3.2L84 25.3l4 4.3h-1.7l-3.8-4.2 3.4-3.6Zm2.3 7.8v-7.8H91V23a3.1 3.1 0 0 1 1.3-.8 3.3 3.3 0 0 1 1.4-.4 2.1 2.1 0 0 1 1.6.6 2.5 2.5 0 0 1 .5 1.7v5.7h-1.2V25a7.3 7.3 0 0 0 0-1.3 1.1 1.1 0 0 0-.5-.7 1.4 1.4 0 0 0-.8-.2 2 2 0 0 0-.9.1 2.8 2.8 0 0 0-.7.5 4 4 0 0 0-.5.6v5.7Zm11.9-7.9a3 3 0 0 1 2.4 1 4.7 4.7 0 0 1 .9 3 5.3 5.3 0 0 1-.4 2.1 3.2 3.2 0 0 1-1.1 1.5 3.1 3.1 0 0 1-1.8.5 3 3 0 0 1-2.5-1.1 4.8 4.8 0 0 1-.9-3 5.4 5.4 0 0 1 .4-2 3.1 3.1 0 0 1 1.1-1.5 3.2 3.2 0 0 1 1.9-.5Zm0 1a1.7 1.7 0 0 0-1.6.7 4 4 0 0 0-.5 2.3 4 4 0 0 0 .5 2.3 1.9 1.9 0 0 0 3 0 4.1 4.1 0 0 0 .5-2.3 4.1 4.1 0 0 0-.5-2.3 1.7 1.7 0 0 0-1.4-.7Zm11.6 6.9h-1.7l-1-5.7-1.1 5.7h-1.7l-1.5-7.8h1.3l1 7 1.2-6h1.5l1.2 6 1-7h1.2Zm6.1-10.9v9a.9.9 0 0 0 .4.8 1.6 1.6 0 0 0 1 .3 3 3 0 0 0 .6-.1 5.1 5.1 0 0 0 .6-.2l.4.9a4.8 4.8 0 0 1-.8.3 4.3 4.3 0 0 1-1 .1 2.5 2.5 0 0 1-1.8-.6 2 2 0 0 1-.6-1.6v-8h-2.4v-1Zm6.9 7.5a2.7 2.7 0 0 0 .7 2 2.2 2.2 0 0 0 1.5.6 3 3 0 0 0 1.1-.2 4.4 4.4 0 0 0 1-.5l.6.8a4.2 4.2 0 0 1-1.2.7 4.3 4.3 0 0 1-1.5.2 3.5 3.5 0 0 1-2-.5 3.3 3.3 0 0 1-1.1-1.4 5.5 5.5 0 0 1 0-4.2 3.4 3.4 0 0 1 1.2-1.5 3.1 3.1 0 0 1 1.8-.5 2.8 2.8 0 0 1 2.3 1 4.2 4.2 0 0 1 .8 2.8v.7Zm2-3.5a1.9 1.9 0 0 0-1.4.6 3 3 0 0 0-.6 2h4a3 3 0 0 0-.5-2 1.7 1.7 0 0 0-1.4-.6Zm10.5-4.1 1.2.1v11h-1l-.2-1a2.9 2.9 0 0 1-1 .8 2.9 2.9 0 0 1-2.8-.2 3 3 0 0 1-1-1.4 6.4 6.4 0 0 1-.4-2.1 5.7 5.7 0 0 1 .4-2.1 3.3 3.3 0 0 1 1-1.5 2.8 2.8 0 0 1 3.7.4Zm-1.8 4a1.7 1.7 0 0 0-1.5.8 4.1 4.1 0 0 0-.5 2.3c0 2 .6 3 1.9 3a1.8 1.8 0 0 0 1.1-.3 3.7 3.7 0 0 0 .8-.9v-3.8a2.3 2.3 0 0 0-.8-.8 1.9 1.9 0 0 0-1-.2Zm12.3-1.6.4 1.2a4.4 4.4 0 0 1-1 .2h-1.3a2 2 0 0 1 1.4 2 2.5 2.5 0 0 1-.8 1.9 3 3 0 0 1-2.1.7 4 4 0 0 1-.7 0 2.8 2.8 0 0 1-.5-.1 1 1 0 0 0-.3.3 1 1 0 0 0-.1.4.6.6 0 0 0 .2.5 1.4 1.4 0 0 0 .8.2h1.4a3.5 3.5 0 0 1 1.4.3 2.5 2.5 0 0 1 1 .7 1.8 1.8 0 0 1 .4 1.1 2 2 0 0 1-1 1.8 5.1 5.1 0 0 1-2.7.6 6 6 0 0 1-2-.3 1.8 1.8 0 0 1-1-.7 2.5 2.5 0 0 1-.4-1.3h1.2a1.4 1.4 0 0 0 .1.7 1 1 0 0 0 .7.4 4.7 4.7 0 0 0 1.3.2 4 4 0 0 0 2-.3 1 1 0 0 0 .5-1 1 1 0 0 0-.5-.9 2.6 2.6 0 0 0-1.3-.3H145a2.1 2.1 0 0 1-1.4-.4 1.4 1.4 0 0 1-.5-1 1.6 1.6 0 0 1 .8-1.4 2.3 2.3 0 0 1-1.3-2.1 2.6 2.6 0 0 1 .4-1.4 2.8 2.8 0 0 1 1.1-1 3.6 3.6 0 0 1 1.6-.4 13.5 13.5 0 0 0 1.6 0 6 6 0 0 0 1-.3c.4 0 .7-.1 1-.3Zm-3.5 1.6a1.8 1.8 0 0 0-1.4.5 1.9 1.9 0 0 0-.5 1.3 1.9 1.9 0 0 0 .5 1.3 1.8 1.8 0 0 0 1.4.5 1.6 1.6 0 0 0 1.3-.5 2 2 0 0 0 .4-1.3 1.6 1.6 0 0 0-1.7-1.8Zm7 3.6a2.7 2.7 0 0 0 .8 2 2.2 2.2 0 0 0 1.5.6 3 3 0 0 0 1.1-.2 4.3 4.3 0 0 0 1-.5l.6.8a4.3 4.3 0 0 1-1.2.7 4.5 4.5 0 0 1-1.5.2 3.5 3.5 0 0 1-2-.5A3.3 3.3 0 0 1 152 28a5.5 5.5 0 0 1 0-4.2 3.4 3.4 0 0 1 1.1-1.5 3.1 3.1 0 0 1 1.9-.5 2.9 2.9 0 0 1 2.3 1 4.3 4.3 0 0 1 .8 2.8v.7Zm2.2-3.5a2 2 0 0 0-1.5.6 3 3 0 0 0-.6 2h4a3 3 0 0 0-.5-2 1.7 1.7 0 0 0-1.4-.6Z" class="c"/><path d="M170.3 17.3a5.5 5.5 0 0 1 1.6.2 2.2 2.2 0 0 1 1.1.7 1.8 1.8 0 0 1 .3 1.4l-.3 2.8a1.3 1.3 0 0 0 .4 1.2 3 3 0 0 0 1.8.3v1a3 3 0 0 0-1.8.5 1.3 1.3 0 0 0-.4 1.1l.3 2.8a1.8 1.8 0 0 1-.3 1.4 2.2 2.2 0 0 1-1.1.7 6 6 0 0 1-1.6.2v-1a4.2 4.2 0 0 0 1 0 1.3 1.3 0 0 0 .7-.4.9.9 0 0 0 .2-.8l-.3-3a1.8 1.8 0 0 1 .2-1.3 2 2 0 0 1 1.3-.6 2 2 0 0 1-1.3-.6 1.8 1.8 0 0 1-.2-1.4l.3-3a.9.9 0 0 0-.2-.7 1.3 1.3 0 0 0-.7-.4 4.2 4.2 0 0 0-1 0Z" class="b"/><path d="M192 18.6a5.6 5.6 0 0 1 1 0 5.8 5.8 0 0 1 1 .4l-.4.9a4 4 0 0 0-.8-.3 5 5 0 0 0-.8 0c-1.1 0-1.7.4-1.7 1.3v1.5h2.7l-.2 1h-2.5v6.2h-1.2v-6.2h-1.9v-1h1.9V21a2.1 2.1 0 0 1 .3-1.2 2.4 2.4 0 0 1 1-.9 3.5 3.5 0 0 1 1.5-.3Zm4.3 11v-1h1.2v-5.8h-1.2v-1h2.1l.2 1.9a4.2 4.2 0 0 1 1.1-1.5 2.6 2.6 0 0 1 1.7-.5 3.4 3.4 0 0 1 .6 0l.5.1-.2 2.7h-1v-1.7c-1.2 0-2 .9-2.6 2.6v3.3h1.6v1Zm11.7-7.9a3 3 0 0 1 2.5 1 4.7 4.7 0 0 1 .8 3 5.3 5.3 0 0 1-.4 2.1 3.1 3.1 0 0 1-1 1.5 3 3 0 0 1-2 .5 3 3 0 0 1-2.4-1.1 4.7 4.7 0 0 1-.9-3 5.6 5.6 0 0 1 .4-2 3 3 0 0 1 3-2Zm0 1a1.7 1.7 0 0 0-1.5.7 4.2 4.2 0 0 0-.5 2.3 4.1 4.1 0 0 0 .5 2.3 1.9 1.9 0 0 0 3 0 4.1 4.1 0 0 0 .5-2.3 4.2 4.2 0 0 0-.5-2.3 1.7 1.7 0 0 0-1.5-.7Zm11-1a1.6 1.6 0 0 1 .7.1 1.3 1.3 0 0 1 .6.7 3.2 3.2 0 0 1 .2 1.3v5.8h-1.1V24a4.4 4.4 0 0 0-.1-1 .5.5 0 0 0-.5-.3 1.3 1.3 0 0 0-.7.2 2.2 2.2 0 0 0-.7.7v6h-1.1V24a4.4 4.4 0 0 0-.1-1 .5.5 0 0 0-.5-.3 1.3 1.3 0 0 0-.7.2 2.6 2.6 0 0 0-.7.7v6h-1.1v-7.8h1v1a3.7 3.7 0 0 1 .8-.8 1.6 1.6 0 0 1 1-.3 1.7 1.7 0 0 1 .8.2 1.3 1.3 0 0 1 .6.8 3 3 0 0 1 .7-.7 1.6 1.6 0 0 1 1-.3Z" class="a"/><path d="m234 22.6-.2-3.9h1.5l-.2 3.9Zm6.5 7v-7.8h1l.1 1.1a3 3 0 0 1 1.2-.8 3.2 3.2 0 0 1 1.4-.4 2 2 0 0 1 1.7.6 2.5 2.5 0 0 1 .5 1.7v5.7H245v-4.8a7.3 7.3 0 0 0 0-1.3 1.1 1.1 0 0 0-.4-.7 1.4 1.4 0 0 0-.9-.2 2 2 0 0 0-.8.1 2.6 2.6 0 0 0-.8.5 4 4 0 0 0-.5.6v5.7Zm9.8-3.4a2.7 2.7 0 0 0 .7 2 2.2 2.2 0 0 0 1.6.6 3 3 0 0 0 1-.2 4.6 4.6 0 0 0 1-.5l.7.8a4.2 4.2 0 0 1-1.3.7 4.4 4.4 0 0 1-1.4.2 3.5 3.5 0 0 1-2-.5 3.3 3.3 0 0 1-1.2-1.4 5.5 5.5 0 0 1 0-4.2 3.4 3.4 0 0 1 1.2-1.5 3.1 3.1 0 0 1 1.8-.5 2.8 2.8 0 0 1 2.3 1 4.2 4.2 0 0 1 .9 2.8v.7Zm2.1-3.5a1.9 1.9 0 0 0-1.4.6 3 3 0 0 0-.7 2h4a3 3 0 0 0-.5-2 1.7 1.7 0 0 0-1.4-.6Zm12 6.5a3.2 3.2 0 0 1-1 .4 4.3 4.3 0 0 1-1.1.2 2.7 2.7 0 0 1-2-.7 2.3 2.3 0 0 1-.7-1.7v-4.6H258v-1h1.8V20h1.2v1.8h2.7l-.2 1H261v4.6a1.3 1.3 0 0 0 .4 1 1.6 1.6 0 0 0 1.1.4 2.9 2.9 0 0 0 .8-.1 3.5 3.5 0 0 0 .7-.3Zm5.1-6.6-.3-3.9h1.6l-.2 3.9Z" class="d"/><path d="M5.2 39.1V46h2.1v1H1.5v-1H4v-5.8H1.6v-1Zm-1-3.6a.9.9 0 0 1 .6.2.8.8 0 0 1 .3.6.9.9 0 0 1-.3.7 1 1 0 0 1-1.5-.7.9.9 0 0 1 .3-.6.9.9 0 0 1 .6-.2Zm11 3.5a1.6 1.6 0 0 1 .7.1 1.3 1.3 0 0 1 .6.6 3.2 3.2 0 0 1 .2 1.4V47h-1.1v-5.6a4.4 4.4 0 0 0-.1-1 .5.5 0 0 0-.5-.3 1.3 1.3 0 0 0-.7.2 2.6 2.6 0 0 0-.7.7v6h-1.1v-5.6a5.2 5.2 0 0 0-.1-1 .5.5 0 0 0-.5-.3 1.3 1.3 0 0 0-.7.2 2.5 2.5 0 0 0-.7.7v6H9.3v-7.9h1v1a3.7 3.7 0 0 1 .8-.8 1.6 1.6 0 0 1 1-.3 1.7 1.7 0 0 1 .8.2 1.3 1.3 0 0 1 .6.8 3 3 0 0 1 .7-.8 1.7 1.7 0 0 1 1-.2Zm7.2 0a2.5 2.5 0 0 1 1.7.5 2.8 2.8 0 0 1 .9 1.4 7.5 7.5 0 0 1 .2 2.1 6.5 6.5 0 0 1-.3 2.1 3.2 3.2 0 0 1-1 1.5 2.8 2.8 0 0 1-3.7-.4V50l-1.3.1v-11H20l.1 1.1a3.2 3.2 0 0 1 1-1 2.7 2.7 0 0 1 1.3-.2Zm-.3 1a1.8 1.8 0 0 0-1.1.3 3.8 3.8 0 0 0-.8 1V45a2.3 2.3 0 0 0 .8.7 2 2 0 0 0 1 .2 1.6 1.6 0 0 0 1.4-.7A4.3 4.3 0 0 0 24 43c0-2-.6-3-1.8-3Zm8.7-1a3 3 0 0 1 2.5 1 4.7 4.7 0 0 1 .8 3 5.3 5.3 0 0 1-.4 2.2 3 3 0 0 1-3 2 3 3 0 0 1-2.5-1.2 4.8 4.8 0 0 1-.8-3 5.4 5.4 0 0 1 .4-2 3.1 3.1 0 0 1 1.1-1.5 3.2 3.2 0 0 1 1.9-.5Zm0 1a1.7 1.7 0 0 0-1.5.7 4 4 0 0 0-.6 2.3 4 4 0 0 0 .6 2.3 1.9 1.9 0 0 0 3 0 4.1 4.1 0 0 0 .5-2.3 4.1 4.1 0 0 0-.5-2.3 1.7 1.7 0 0 0-1.5-.7Zm6 6.9v-1H38V40h-1.3v-1H39l.2 1.9a4.2 4.2 0 0 1 1.1-1.5 2.6 2.6 0 0 1 1.7-.5 3.3 3.3 0 0 1 .6 0l.5.1-.2 2.7h-1V40c-1.2 0-2 1-2.6 2.6V46h1.6v1Zm14.9-.4a3.2 3.2 0 0 1-1 .4 4.3 4.3 0 0 1-1.1.2 2.7 2.7 0 0 1-2-.7 2.3 2.3 0 0 1-.6-1.7V40h-1.8v-1H47v-1.7h1.2V39H51l-.1 1h-2.5v4.6a1.3 1.3 0 0 0 .3 1 1.6 1.6 0 0 0 1.1.4 2.9 2.9 0 0 0 .8-.1 3.5 3.5 0 0 0 .7-.3Z" class="a"/><path d="M68.4 34.6v1a4.3 4.3 0 0 0-1 0 1.3 1.3 0 0 0-.6.4.9.9 0 0 0-.2.7l.3 3a1.9 1.9 0 0 1-.3 1.4 1.8 1.8 0 0 1-1.1.6 1.8 1.8 0 0 1 1.1.6 1.9 1.9 0 0 1 .3 1.4l-.3 3a.9.9 0 0 0 .2.7 1.3 1.3 0 0 0 .6.4 4.2 4.2 0 0 0 1 0v1a6 6 0 0 1-1.5-.1 2.3 2.3 0 0 1-1.2-.7 1.8 1.8 0 0 1-.3-1.4l.3-2.8a1.7 1.7 0 0 0 0-.9 1 1 0 0 0-.7-.5 4.7 4.7 0 0 0-1.5-.2v-1A4.7 4.7 0 0 0 65 41a1 1 0 0 0 .7-.5 1.6 1.6 0 0 0 0-.8l-.3-2.8a1.8 1.8 0 0 1 .4-1.5 2.1 2.1 0 0 1 1-.6 5.5 5.5 0 0 1 1.6-.2Z" class="b"/><path d="M82.2 35.9v4.3a3 3 0 0 1 1.1-1 3.1 3.1 0 0 1 1.4-.2 2 2 0 0 1 1.6.6 2.5 2.5 0 0 1 .6 1.6V47h-1.3v-5.6a1.2 1.2 0 0 0-1.3-1.4 2 2 0 0 0-.8.2 3.4 3.4 0 0 0-1.3 1.1V47H81V36Zm11.6 3.2V46H96v1h-6v-1h2.4v-5.8h-2.3v-1Zm-1-3.6a.9.9 0 0 1 .6.2.9.9 0 0 1 .3.6.9.9 0 0 1-1 1 .8.8 0 0 1-.6-.3.9.9 0 0 1-.2-.7.8.8 0 0 1 .2-.6.8.8 0 0 1 .7-.2Zm5.9 11.4v-7.8h1l.1 1.1a3 3 0 0 1 1.2-1 3.2 3.2 0 0 1 1.4-.2 2.1 2.1 0 0 1 1.7.6 2.5 2.5 0 0 1 .5 1.6V47h-1.2v-4.7a7.3 7.3 0 0 0-.1-1.3 1.1 1.1 0 0 0-.4-.7 1.4 1.4 0 0 0-.9-.3 2 2 0 0 0-.8.2 2.8 2.8 0 0 0-.7.5 4 4 0 0 0-.6.6V47Zm15-.4a3.2 3.2 0 0 1-1 .4 4.4 4.4 0 0 1-1 .2 2.7 2.7 0 0 1-2-.7 2.3 2.3 0 0 1-.7-1.7V40h-1.8v-1h1.8v-1.7h1.2V39h2.7l-.1 1h-2.5v4.6a1.4 1.4 0 0 0 .4 1 1.6 1.6 0 0 0 1.1.4 3 3 0 0 0 .8-.1 3.5 3.5 0 0 0 .7-.3Zm5.3-.5a2.6 2.6 0 0 0 1.5-.3 1 1 0 0 0 .5-.9 1.3 1.3 0 0 0-.1-.6 1.2 1.2 0 0 0-.6-.5 6.1 6.1 0 0 0-1.2-.4 8 8 0 0 1-1.4-.4 2.3 2.3 0 0 1-.9-.7 1.7 1.7 0 0 1-.3-1.1 1.8 1.8 0 0 1 .8-1.6 3.6 3.6 0 0 1 2.1-.5 4.8 4.8 0 0 1 1.7.2 5 5 0 0 1 1.1.6l-.5.9a4 4 0 0 0-1-.5 3.8 3.8 0 0 0-1.3-.2 2.2 2.2 0 0 0-1.3.3.8.8 0 0 0-.4.7.9.9 0 0 0 .2.6 1.6 1.6 0 0 0 .6.4l1.3.4a7.3 7.3 0 0 1 1.3.4 2.3 2.3 0 0 1 .9.8 2 2 0 0 1 .3 1.1 1.9 1.9 0 0 1-.5 1.4 2.6 2.6 0 0 1-1.2.7 5.2 5.2 0 0 1-1.6.3 4.8 4.8 0 0 1-1.8-.3 4.6 4.6 0 0 1-1.2-.8l.7-.8a3.9 3.9 0 0 0 1 .6 3.5 3.5 0 0 0 1.4.3Z" class="c"/><path d="M134.9 34.6a5.6 5.6 0 0 1 1.5.2 2.1 2.1 0 0 1 1.1.7 1.8 1.8 0 0 1 .3 1.4l-.2 2.8a1.2 1.2 0 0 0 .4 1.1 3 3 0 0 0 1.8.4v1a3 3 0 0 0-1.9.4 1.2 1.2 0 0 0-.3 1.2l.3 2.8a1.8 1.8 0 0 1-.4 1.4 2.2 2.2 0 0 1-1 .7 6 6 0 0 1-1.6.2v-1a4.2 4.2 0 0 0 1 0 1.3 1.3 0 0 0 .6-.5.9.9 0 0 0 .2-.7l-.3-3a1.8 1.8 0 0 1 .3-1.4 2 2 0 0 1 1.3-.5 2 2 0 0 1-1.3-.7 1.8 1.8 0 0 1-.3-1.3l.3-3a.9.9 0 0 0-.1-.8 1.3 1.3 0 0 0-.7-.3 4.2 4.2 0 0 0-1-.1Z" class="b"/><path d="M156.5 35.8a5.7 5.7 0 0 1 1.1.1 6.1 6.1 0 0 1 1 .3l-.4 1a4.1 4.1 0 0 0-.8-.3 5.1 5.1 0 0 0-.9 0c-1 0-1.6.4-1.6 1.2v1.6h2.6l-.1 1h-2.5V47h-1.2v-6.2h-1.9v-1h1.9v-1.5a2 2 0 0 1 .3-1.3 2.5 2.5 0 0 1 1-.8 3.6 3.6 0 0 1 1.5-.3Zm4.3 11.1v-1h1.2V40h-1.2v-1h2.2l.2 1.9a4.2 4.2 0 0 1 1.1-1.4 2.6 2.6 0 0 1 1.7-.6 3.3 3.3 0 0 1 .6.1l.5.1-.2 2.6h-1V40c-1.2 0-2 1-2.6 2.6V46h1.6v1Zm11.7-7.9a3 3 0 0 1 2.5 1 4.7 4.7 0 0 1 .9 3 5.5 5.5 0 0 1-.4 2.1 3.2 3.2 0 0 1-1.1 1.4 3.1 3.1 0 0 1-1.9.6A3 3 0 0 1 170 46a4.8 4.8 0 0 1-.8-3 5.4 5.4 0 0 1 .4-2.1 3.1 3.1 0 0 1 1.1-1.4 3.2 3.2 0 0 1 1.8-.5Zm0 1a1.7 1.7 0 0 0-1.5.7 4 4 0 0 0-.5 2.3 4 4 0 0 0 .5 2.3 1.9 1.9 0 0 0 3 0 4.1 4.1 0 0 0 .5-2.3 4.1 4.1 0 0 0-.5-2.3 1.7 1.7 0 0 0-1.5-.7Zm11.1-1a1.6 1.6 0 0 1 .7.1 1.2 1.2 0 0 1 .6.6 3.2 3.2 0 0 1 .2 1.4V47h-1.2v-5.6a4.4 4.4 0 0 0 0-1 .5.5 0 0 0-.6-.3 1.3 1.3 0 0 0-.7.2 2.4 2.4 0 0 0-.6.7v6h-1.2v-5.6a4.4 4.4 0 0 0 0-1 .5.5 0 0 0-.6-.3 1.3 1.3 0 0 0-.7.2 2.4 2.4 0 0 0-.6.7v6h-1.2v-7.9h1v1a3.5 3.5 0 0 1 .8-.8 1.5 1.5 0 0 1 1-.3 1.7 1.7 0 0 1 .8.2 1.3 1.3 0 0 1 .6.8 3.2 3.2 0 0 1 .7-.8 1.7 1.7 0 0 1 1-.2Z" class="a"/><path d="m198.6 39.8-.3-3.8h1.6l-.3 3.8Zm11-4a5 5 0 0 1 2.1.5l-.4.9a4 4 0 0 0-.8-.3 5 5 0 0 0-.8 0c-1.1 0-1.7.4-1.7 1.2v1.6h2.7l-.2 1H208V47h-1.2v-6.2h-1.9v-1h1.9v-1.5a2 2 0 0 1 .4-1.3 2.4 2.4 0 0 1 1-.8 3.5 3.5 0 0 1 1.4-.3Zm4.4 11.1v-1h1.2V40H214v-1h2.1l.3 1.9a4.2 4.2 0 0 1 1-1.5 2.6 2.6 0 0 1 1.7-.5 3.3 3.3 0 0 1 .6 0l.6.1-.2 2.7h-1V40c-1.3 0-2 1-2.7 2.6V46h1.6v1Zm12.7-7.8V46h2.2v1H223v-1h2.4v-5.8H223v-1Zm-1-3.6a.9.9 0 0 1 .7.2.8.8 0 0 1 .2.6.9.9 0 0 1-.2.7 1 1 0 0 1-1.6-.7.9.9 0 0 1 .2-.6.9.9 0 0 1 .7-.2Zm6.9 7.9a2.7 2.7 0 0 0 .7 2 2.2 2.2 0 0 0 1.6.7 3 3 0 0 0 1-.2 4.6 4.6 0 0 0 1-.5l.6.8a4.2 4.2 0 0 1-1.2.7 4.4 4.4 0 0 1-1.4.2 3.5 3.5 0 0 1-2-.5 3.3 3.3 0 0 1-1.2-1.4 5.6 5.6 0 0 1 0-4.2 3.5 3.5 0 0 1 1.2-1.5 3 3 0 0 1 1.8-.5 2.9 2.9 0 0 1 2.3 1 4.3 4.3 0 0 1 .8 2.8v.4a2.7 2.7 0 0 1 0 .3Zm2.1-3.4a2 2 0 0 0-1.4.6 3 3 0 0 0-.7 1.9h4a3 3 0 0 0-.5-1.9 1.7 1.7 0 0 0-1.4-.6Zm5.8 6.9v-7.8h1l.1 1.1a3 3 0 0 1 1.2-1 3.2 3.2 0 0 1 1.4-.2 2 2 0 0 1 1.7.6 2.5 2.5 0 0 1 .5 1.6V47H245v-4.7a7.3 7.3 0 0 0 0-1.3 1.1 1.1 0 0 0-.4-.7 1.4 1.4 0 0 0-.9-.3 2 2 0 0 0-.8.2 2.6 2.6 0 0 0-.8.5 4 4 0 0 0-.5.6V47ZM254 35.8l1.2.2v10.9h-1l-.2-1a2.8 2.8 0 0 1-1 1 2.8 2.8 0 0 1-2.8-.3 3 3 0 0 1-1-1.4 6.4 6.4 0 0 1-.3-2.2 5.7 5.7 0 0 1 .3-2 3.3 3.3 0 0 1 1-1.5 2.6 2.6 0 0 1 1.7-.5 2.6 2.6 0 0 1 2 .9Zm-1.8 4.2a1.7 1.7 0 0 0-1.5.7 4.1 4.1 0 0 0-.5 2.3c0 2 .6 3 1.9 3a1.8 1.8 0 0 0 1.1-.3 3.7 3.7 0 0 0 .8-.9V41a2.3 2.3 0 0 0-.8-.7 1.9 1.9 0 0 0-1-.3Zm8.6 6a2.6 2.6 0 0 0 1.5-.3 1 1 0 0 0 .5-.9 1.4 1.4 0 0 0-.1-.6 1.3 1.3 0 0 0-.6-.5 6.1 6.1 0 0 0-1.2-.4 8.2 8.2 0 0 1-1.4-.4 2.3 2.3 0 0 1-1-.7 1.7 1.7 0 0 1-.3-1.1 1.8 1.8 0 0 1 .9-1.6 3.7 3.7 0 0 1 2.1-.5 4.7 4.7 0 0 1 1.6.2 5 5 0 0 1 1.2.6l-.5.9a3.9 3.9 0 0 0-1-.5 3.8 3.8 0 0 0-1.3-.2 2.3 2.3 0 0 0-1.3.3.8.8 0 0 0-.4.7.9.9 0 0 0 .2.6 1.6 1.6 0 0 0 .6.4l1.3.4a7.3 7.3 0 0 1 1.3.4 2.3 2.3 0 0 1 .9.8 2 2 0 0 1 .3 1.2 2 2 0 0 1-.5 1.3 2.7 2.7 0 0 1-1.2.7 5 5 0 0 1-1.6.3 4.8 4.8 0 0 1-1.8-.3 4.6 4.6 0 0 1-1.2-.8l.7-.8a3.9 3.9 0 0 0 1 .6 3.6 3.6 0 0 0 1.3.3Zm8.7-6.2-.3-3.8h1.6l-.2 3.8Z" class="d"/><path d="M7 81.5H5.2l-1-5.8-1 5.8H1.3L0 73.7h1.3l1 7 1.3-6H5l1.2 6 1-7h1.1Zm4.3-11.1v4.3a3 3 0 0 1 1.1-.9 3.1 3.1 0 0 1 1.4-.3 2 2 0 0 1 1.7.6 2.5 2.5 0 0 1 .5 1.7v5.7h-1.2v-5.7a1.4 1.4 0 0 0-.4-1 1.4 1.4 0 0 0-1-.3 2 2 0 0 0-.8.2 3 3 0 0 0-.7.5 3.2 3.2 0 0 0-.5.6v5.7H10v-11Zm11.6 3.3v6.8H25v1h-5.9v-1h2.5v-5.8h-2.4v-1Zm-1-3.7a.9.9 0 0 1 .7.3.9.9 0 0 1 .2.6.9.9 0 0 1-1 .9.9.9 0 0 1-.8-.9.8.8 0 0 1 .3-.6.8.8 0 0 1 .6-.3Zm8.9.5v9a.9.9 0 0 0 .4.9 1.6 1.6 0 0 0 1 .2 2.8 2.8 0 0 0 .6 0 4.8 4.8 0 0 0 .6-.3l.4 1a4.8 4.8 0 0 1-.8.2 3.9 3.9 0 0 1-1 .1 2.5 2.5 0 0 1-1.8-.5 2 2 0 0 1-.6-1.6v-8h-2.4v-1Zm6.8 7.5a2.7 2.7 0 0 0 .8 2 2.2 2.2 0 0 0 1.5.7 3 3 0 0 0 1.1-.2 4.6 4.6 0 0 0 1-.5l.6.8a4 4 0 0 1-1.3.6 4.4 4.4 0 0 1-1.4.3 3.5 3.5 0 0 1-2-.5 3.2 3.2 0 0 1-1.1-1.4 5.5 5.5 0 0 1 0-4.3A3.4 3.4 0 0 1 38 74a3.1 3.1 0 0 1 1.8-.5 2.8 2.8 0 0 1 2.3 1 4.2 4.2 0 0 1 .8 2.8v.7Zm2.2-3.4a2 2 0 0 0-1.5.5 3 3 0 0 0-.6 2h4a3 3 0 0 0-.6-2 1.7 1.7 0 0 0-1.3-.6Z" class="a"/><path d="M56 76.3a9 9 0 0 0 .4 2.6 7 7 0 0 0 1 2 13 13 0 0 0 1.8 1.9l-.6.7a14.5 14.5 0 0 1-2-2 7.4 7.4 0 0 1-1.4-2.3 9.7 9.7 0 0 1 0-5.9 7.5 7.5 0 0 1 1.3-2.3 15 15 0 0 1 2-2l.7.7a16.6 16.6 0 0 0-1.4 1.4 7.1 7.1 0 0 0-1 1.5 6.5 6.5 0 0 0-.6 1.6 9.8 9.8 0 0 0-.2 2Z" class="b"/><path d="M69.4 81a3 3 0 0 1-1 .5 4.3 4.3 0 0 1-1 .1 2.7 2.7 0 0 1-2-.6 2.3 2.3 0 0 1-.7-1.7v-4.7h-1.8v-1h1.8V72l1.3-.1v1.9h2.7l-.2 1H66v4.6a1.3 1.3 0 0 0 .3 1 1.6 1.6 0 0 0 1.2.3 2.9 2.9 0 0 0 .8 0 3.5 3.5 0 0 0 .6-.3Zm2.8.5v-1h1.2v-5.9h-1.2v-1h2.1l.2 1.9a4.2 4.2 0 0 1 1.2-1.5 2.6 2.6 0 0 1 1.7-.5 3.3 3.3 0 0 1 .5 0l.6.2-.2 2.6h-1v-1.7c-1.2 0-2 1-2.6 2.6v3.3h1.6v1Zm10-7.8v5.5a1.6 1.6 0 0 0 .3 1.1 1.3 1.3 0 0 0 1 .3 2.2 2.2 0 0 0 1.2-.3 2.8 2.8 0 0 0 1-.9v-5.7h1.2v7.8h-1l-.1-1a3 3 0 0 1-1.2.9 3.2 3.2 0 0 1-1.3.3 2.2 2.2 0 0 1-1.8-.7 2.4 2.4 0 0 1-.5-1.6v-5.7Zm8.6 4.3a2.7 2.7 0 0 0 .7 2 2.2 2.2 0 0 0 1.6.7 3 3 0 0 0 1-.2 4.6 4.6 0 0 0 1-.5l.6.8a4 4 0 0 1-1.2.6 4.4 4.4 0 0 1-1.4.3 3.5 3.5 0 0 1-2-.5 3.3 3.3 0 0 1-1.2-1.4 5.6 5.6 0 0 1 0-4.3 3.5 3.5 0 0 1 1.2-1.5 3.1 3.1 0 0 1 1.8-.5 2.9 2.9 0 0 1 2.3 1 4.3 4.3 0 0 1 .9 2.8v.4a2.7 2.7 0 0 1 0 .3Zm2.1-3.4a2 2 0 0 0-1.4.6 3 3 0 0 0-.7 1.8h4a3 3 0 0 0-.5-1.8 1.7 1.7 0 0 0-1.4-.7Z" style="fill:#3cb9a3"/><path d="M103 76.3a9.9 9.9 0 0 0-.3-2 6.5 6.5 0 0 0-.5-1.7 7.1 7.1 0 0 0-1-1.5 15.2 15.2 0 0 0-1.4-1.4l.6-.6a15 15 0 0 1 2 2 7.8 7.8 0 0 1 1.3 2.2 9.9 9.9 0 0 1 0 6 7.7 7.7 0 0 1-1.3 2.2 14.5 14.5 0 0 1-2 2l-.6-.7a13 13 0 0 0 1.7-1.8 6.5 6.5 0 0 0 1-2 9 9 0 0 0 .4-2.7Zm18.6-7.2v1a4.2 4.2 0 0 0-1 .1 1.3 1.3 0 0 0-.7.4.8.8 0 0 0-.2.7l.3 3a2 2 0 0 1-.2 1.4 1.8 1.8 0 0 1-1.1.6 1.8 1.8 0 0 1 1 .6 2 2 0 0 1 .3 1.4l-.3 3a.9.9 0 0 0 .2.7 1.3 1.3 0 0 0 .7.3 4.2 4.2 0 0 0 1 .1v1a6 6 0 0 1-1.5-.2 2.3 2.3 0 0 1-1.2-.7 1.8 1.8 0 0 1-.3-1.4l.3-2.8a1.7 1.7 0 0 0 0-.8 1 1 0 0 0-.7-.6 4.6 4.6 0 0 0-1.5-.1v-1a4.6 4.6 0 0 0 1.5-.2 1 1 0 0 0 .6-.5 1.6 1.6 0 0 0 .1-.9l-.3-2.8a1.9 1.9 0 0 1 .3-1.4 2.2 2.2 0 0 1 1.2-.6 5.5 5.5 0 0 1 1.5-.3Z" class="b"/><path d="M22 87.8v9a.9.9 0 0 0 .3.8 1.6 1.6 0 0 0 1 .3 2.9 2.9 0 0 0 .6 0 4.8 4.8 0 0 0 .7-.3l.3 1a4.4 4.4 0 0 1-.8.2 3.9 3.9 0 0 1-1 .1 2.5 2.5 0 0 1-1.7-.6 2 2 0 0 1-.7-1.5v-8h-2.4v-1Zm6.8 7.5a2.7 2.7 0 0 0 .7 2 2.2 2.2 0 0 0 1.6.6 3 3 0 0 0 1-.2 4.6 4.6 0 0 0 1-.5l.6.8a4 4 0 0 1-1.2.7 4.4 4.4 0 0 1-1.5.2 3.5 3.5 0 0 1-1.9-.5A3.2 3.2 0 0 1 28 97a5.5 5.5 0 0 1 0-4.2 3.4 3.4 0 0 1 1.2-1.4 3.1 3.1 0 0 1 1.8-.6 2.8 2.8 0 0 1 2.3 1 4.3 4.3 0 0 1 .8 2.8v.7Zm2.1-3.5a2 2 0 0 0-1.4.6 2.9 2.9 0 0 0-.7 2h4a3 3 0 0 0-.5-2 1.7 1.7 0 0 0-1.4-.6ZM42.2 97a1.1 1.1 0 0 0 .2.7.8.8 0 0 0 .5.3l-.3 1a2 2 0 0 1-.9-.4 1.4 1.4 0 0 1-.6-.8 2.7 2.7 0 0 1-1 .8 3.5 3.5 0 0 1-1.3.3 2.5 2.5 0 0 1-1.9-.6 2.4 2.4 0 0 1-.7-1.8 2 2 0 0 1 1-1.8 4.8 4.8 0 0 1 2.6-.7H41v-.6a1.4 1.4 0 0 0-.5-1.2 2.3 2.3 0 0 0-1.4-.4 4.6 4.6 0 0 0-.9.1 7.3 7.3 0 0 0-1 .3l-.4-.9A7.8 7.8 0 0 1 38 91a6.4 6.4 0 0 1 1.2 0 3 3 0 0 1 2.2.6 2.4 2.4 0 0 1 .7 1.8ZM39 98a2.3 2.3 0 0 0 1.1-.3 2.7 2.7 0 0 0 .9-.8v-2h-1.1a2.9 2.9 0 0 0-1.8.4 1.5 1.5 0 0 0-.6 1.2A1.3 1.3 0 0 0 39 98Zm6.6.7v-1h1.2V92h-1.2v-1h2.2l.2 1.8a4.2 4.2 0 0 1 1-1.4 2.6 2.6 0 0 1 1.8-.6 3.4 3.4 0 0 1 .6 0l.5.2-.2 2.6h-1V92c-1.3 0-2 .9-2.6 2.6v3.3h1.5v1Zm8.8 0V91h1l.1 1a3 3 0 0 1 1.2-.9 3.3 3.3 0 0 1 1.4-.3 2 2 0 0 1 1.7.6 2.5 2.5 0 0 1 .5 1.6v5.7h-1.2V94a8.6 8.6 0 0 0-.1-1.2 1.1 1.1 0 0 0-.4-.8 1.4 1.4 0 0 0-.9-.2 2 2 0 0 0-.8.2 3 3 0 0 0-.7.5 4 4 0 0 0-.6.6v5.7Z" style="fill:#f2a076"/><path d="M65 93.6a9 9 0 0 0 .3 2.6 6.7 6.7 0 0 0 1 2 12.4 12.4 0 0 0 1.8 1.9l-.7.7a15 15 0 0 1-2-2 7.6 7.6 0 0 1-1.3-2.3 9.7 9.7 0 0 1 0-6 7.6 7.6 0 0 1 1.3-2.2 15.6 15.6 0 0 1 2-2l.7.7a16.6 16.6 0 0 0-1.4 1.4 7.5 7.5 0 0 0-1 1.4 6.5 6.5 0 0 0-.6 1.7 9.8 9.8 0 0 0-.2 2Zm11.3 0a9.8 9.8 0 0 0-.2-2.1 6.2 6.2 0 0 0-.6-1.7 7 7 0 0 0-1-1.4 16.6 16.6 0 0 0-1.3-1.4l.6-.6a15.6 15.6 0 0 1 2 2 7.6 7.6 0 0 1 1.3 2.3 9.7 9.7 0 0 1 0 5.8 7.6 7.6 0 0 1-1.3 2.3 15 15 0 0 1-2 2l-.6-.6a12.4 12.4 0 0 0 1.7-1.9 6.7 6.7 0 0 0 1.1-2 9 9 0 0 0 .3-2.7ZM95 86.4v1a4.2 4.2 0 0 0-1 .1 1.4 1.4 0 0 0-.7.4.9.9 0 0 0-.2.7l.3 3a1.9 1.9 0 0 1-.2 1.4 1.8 1.8 0 0 1-1.1.6 1.8 1.8 0 0 1 1.1.5 1.9 1.9 0 0 1 .2 1.4l-.3 3a.9.9 0 0 0 .2.8 1.4 1.4 0 0 0 .7.3 4.3 4.3 0 0 0 1 .1v1a6 6 0 0 1-1.5-.2 2.2 2.2 0 0 1-1.2-.7 1.8 1.8 0 0 1-.3-1.4l.3-2.8a1.7 1.7 0 0 0 0-.8 1 1 0 0 0-.7-.6A4.7 4.7 0 0 0 90 94v-1a4.7 4.7 0 0 0 1.5-.1 1 1 0 0 0 .6-.6 1.6 1.6 0 0 0 .1-.8l-.3-2.8a1.8 1.8 0 0 1 .3-1.4 2.1 2.1 0 0 1 1.1-.7 5.6 5.6 0 0 1 1.6-.2ZM19.7 121a5.5 5.5 0 0 1 1.5.2 2.2 2.2 0 0 1 1.2.6 1.8 1.8 0 0 1 .3 1.5l-.4 2.8a1.2 1.2 0 0 0 .4 1.1 3 3 0 0 0 1.8.4v1a3 3 0 0 0-1.8.4 1.3 1.3 0 0 0-.4 1.2l.3 2.8a1.9 1.9 0 0 1-.3 1.4 2.3 2.3 0 0 1-1.1.7 6 6 0 0 1-1.6.2v-1a4.2 4.2 0 0 0 1-.1 1.3 1.3 0 0 0 .7-.4.9.9 0 0 0 .2-.7l-.3-3a1.8 1.8 0 0 1 .3-1.4 2 2 0 0 1 1.2-.6 2 2 0 0 1-1.2-.6 1.8 1.8 0 0 1-.3-1.4l.3-3a.8.8 0 0 0-.2-.7 1.3 1.3 0 0 0-.7-.3 4.1 4.1 0 0 0-1-.1Z" style="fill:#8b758b"/><path d="M2 138.2a5.5 5.5 0 0 1 1.5.2 2.2 2.2 0 0 1 1.1.7 1.8 1.8 0 0 1 .3 1.4l-.3 2.9a1.3 1.3 0 0 0 .4 1.1 3 3 0 0 0 1.9.4v1a3 3 0 0 0-1.9.4 1.3 1.3 0 0 0-.4 1.2l.3 2.8a1.8 1.8 0 0 1-.3 1.4 2.2 2.2 0 0 1-1.1.7 6 6 0 0 1-1.6.2v-1a4.3 4.3 0 0 0 1-.1 1.3 1.3 0 0 0 .7-.4.9.9 0 0 0 .2-.7l-.3-3a1.8 1.8 0 0 1 .3-1.4 2 2 0 0 1 1.2-.6 2 2 0 0 1-1.2-.6 1.8 1.8 0 0 1-.3-1.4l.3-3a.9.9 0 0 0-.2-.7 1.3 1.3 0 0 0-.7-.3 4.2 4.2 0 0 0-1-.1Z" class="b"/><path d="M34.4 105.9h.8v14.3h-.8z" style="fill:#bbb;animation:blink .9s ease-in-out infinite"/></svg>